<?xml version="1.0" encoding="utf-8"?>
<!-- Generator: Adobe Illustrator 23.0.1, SVG Export Plug-In . SVG Version: 6.00 Build 0)  -->
<svg version="1.1" id="Capa_1" xmlns="http://www.w3.org/2000/svg" xmlns:xlink="http://www.w3.org/1999/xlink" x="0px" y="0px"
	 viewBox="0 0 397 354" style="enable-background:new 0 0 397 354;" xml:space="preserve">
<style type="text/css">
	.st0{fill:#9E6EAF;}
	.st1{font-family:'Raleway-Regular';}
	.st2{font-size:63.6582px;}
	.st3{font-family:'Raleway-Black';}
</style>
<g>
	<g>
		<path class="st0" d="M288,203c-0.2,11.1-4.5,23.7-11,31c-6.9,7.8-19.1,16.2-30,16c-7.9-0.2-28.6-7.8-42.7-8.1
			c-3.3-0.1-5-0.7-5-1.9c0-0.2,0.1-0.6,0.2-1.2c1.2-8.4-0.9-24.4-0.4-48c0.5-22.6,1.1-64.2-0.1-81l-0.1-0.9c0-0.8,0.8-1.3,2.5-1.4
			c1.2,0,4.5,1.5,11.5,4.5c5.2,2.2,12,11,15,17c0.4,0.9,1,3.3,1,5c0,2.1,0.3,1.6,0,5c-0.4,4.2-0.7,6.9-0.7,8.2
			c-0.4,5.2-0.7,12.4-0.9,21.4c0,1.6,0.4,2.5,1.2,2.5c0.4,0,0.8-0.2,1.2-0.6c4.9-5,11.2-7.4,18.9-7.2c11.6,0.3,22,3.7,28.3,11.7
			C282.9,182.4,288.3,191.1,288,203z M260.2,207.2c0.1-4.4-1.2-8.1-3.8-11.2c-2.6-3.1-6.1-4.7-10.4-4.8c-4.4-0.1-8,1.3-10.6,4.3
			c-2.6,3-4,6.7-4.1,11.2c-0.1,4.7,1.1,8.4,3.5,11.3c2.6,3.1,6.1,4.7,10.7,4.8c4.5,0.1,8.1-1.4,10.8-4.4
			C258.8,215.5,260.1,211.8,260.2,207.2z"/>
	</g>
	<g>
		<path class="st0" d="M112,175c6.3-8,16.8-11.5,28.3-11.7c7.7-0.2,14,2.2,18.9,7.2c0.4,0.4,0.8,0.6,1.2,0.6c0.8,0,1.3-0.8,1.2-2.5
			c-0.2-9-0.5-16.2-0.9-21.4c-0.1-1.3-0.3-4.1-0.7-8.2c-0.3-3.4,0-2.9,0-5c0-1.7,0.6-4.1,1-5c3-6,9.8-14.8,15-17
			c7-3,10.4-4.5,11.5-4.5c1.6,0.1,2.5,0.5,2.5,1.4l-0.1,0.9c-1.2,16.7-0.6,58.4-0.1,81c0.5,23.6-1.6,39.6-0.4,48
			c0.1,0.6,0.2,1,0.2,1.2c0,1.2-1.6,1.9-5,1.9c-14.2,0.3-34.8,8-42.7,8.1c-10.9,0.2-23.1-8.2-30-16c-6.5-7.3-10.8-19.9-11-31
			C100.7,191.1,106.1,182.4,112,175z M132.7,218.3c2.7,3.1,6.3,4.5,10.8,4.4c4.5-0.1,8.1-1.7,10.7-4.8c2.4-2.9,3.6-6.7,3.5-11.3
			c-0.1-4.5-1.5-8.2-4.1-11.2c-2.6-3-6.2-4.4-10.6-4.3c-4.3,0.1-7.8,1.7-10.4,4.8c-2.6,3.1-3.9,6.8-3.8,11.2
			C128.8,211.8,130.2,215.5,132.7,218.3z"/>
	</g>
	<path class="st0" d="M133.3,48.6c0.3-10.1,2.1-19.8,7.4-28.7c9.3-15.7,25.5-17.3,37.4-3.6c15.2,17.4,16.1,51.8,2,70
		c-9.6,12.4-24.1,12.6-34.5,0.4C136.3,75.8,133.7,62.6,133.3,48.6z"/>
	<path class="st0" d="M255.4,51c0.2,9.7-2.3,19.8-7.6,29c-2.3,4-5.3,7.7-8.8,10.7c-8.4,7.4-19.5,6.6-27.5-1.2
		c-7.3-7.2-10.7-16.4-12.1-26.3c-2.2-15.8,0-30.9,9.2-44.3c6.5-9.5,15.5-13.5,24.7-11.1c6,1.5,10.2,5.4,13.6,10.3
		C252.5,26.1,255.4,37.2,255.4,51z"/>
	<path class="st0" d="M258.5,121.3c-0.5-20.2,4.2-33.9,13.7-46c2.4-3.1,5.6-5.8,8.9-7.9c11-7,23.3-3.7,29,8.1
		c8,16.7,5.4,33.4-1.7,49.7c-3.7,8.7-9.2,16.2-17.8,21c-10.1,5.6-20.2,3-26.4-6.7C260.2,133.1,258.6,126.8,258.5,121.3z"/>
	<path class="st0" d="M130.8,119c-0.9,3.5-1.8,10.7-4.6,17.1c-5.9,13.6-18.8,16.8-30.8,8.2c-9.3-6.7-14.6-16.2-18-26.9
		c-3.9-12.5-5.1-25.1-0.5-37.7c6.3-17.4,23.1-21.3,36.3-8.2C125.2,83.5,129.9,98.7,130.8,119z"/>
</g>
<text transform="matrix(0.8731 0 0 1 2.8286 336.8037)"><tspan x="0" y="0" class="st0 st1 st2">Digital</tspan><tspan x="185.9" y="0" class="st0 st3 st2">Booking</tspan></text>
</svg>
